<svg width="18" height="14" viewBox="0 0 18 14" fill="none" xmlns="http://www.w3.org/2000/svg">
<path d="M8.99995 4.54492C7.64585 4.54492 6.54541 5.64536 6.54541 6.99946C6.54541 8.35356 7.64585 9.454 8.99995 9.454C10.354 9.454 11.4545 8.35356 11.4545 6.99946C11.4545 5.64536 10.354 4.54492 8.99995 4.54492Z" fill="#E42918"/>
<path d="M9.00002 0.863281C4.90909 0.863281 1.41547 3.4078 0 6.99965C1.41547 10.5915 4.90909 13.136 9.00002 13.136C13.095 13.136 16.5846 10.5915 18 6.99965C16.5846 3.4078 13.095 0.863281 9.00002 0.863281ZM9.00002 11.0905C6.74184 11.0905 4.90909 9.25779 4.90909 6.99961C4.90909 4.74143 6.74184 2.90872 9.00002 2.90872C11.2582 2.90872 13.0909 4.74147 13.0909 6.99965C13.0909 9.25783 11.2582 11.0905 9.00002 11.0905Z" fill="#E42918"/>
</svg>
