<svg width="161" height="17" viewBox="0 0 161 17" fill="none" xmlns="http://www.w3.org/2000/svg">
<path d="M9.66739 0.299999H11.8514V15H9.66739V8.679H2.67439V15H0.490393V0.299999H2.67439V6.81H9.66739V0.299999ZM23.6253 13.089H30.7443V15H21.3993V0.299999H30.5343V2.211H23.6253V6.747H28.4343V8.658H23.6253V13.089ZM44.8127 0.153C46.0727 0.153 47.1647 0.545 48.0887 1.329C49.0267 2.113 49.4957 3.03 49.4957 4.08C49.4957 4.864 49.2437 5.543 48.7397 6.117C48.2357 6.677 47.5847 7.048 46.7867 7.23C47.6547 7.314 48.4457 7.678 49.1597 8.322C49.8737 8.966 50.2307 9.771 50.2307 10.737C50.2307 12.053 49.6987 13.131 48.6347 13.971C47.5847 14.797 46.3107 15.21 44.8127 15.21C43.2867 15.21 42.0127 14.783 40.9907 13.929C39.9687 13.075 39.4577 12.025 39.4577 10.779L41.7047 10.758C41.7047 11.57 42.0197 12.207 42.6497 12.669C43.2937 13.131 44.0147 13.362 44.8127 13.362C45.6527 13.362 46.3877 13.152 47.0177 12.732C47.6617 12.312 47.9837 11.647 47.9837 10.737C47.9837 9.981 47.6687 9.379 47.0387 8.931C46.4087 8.483 45.4637 8.252 44.2037 8.238V6.495C45.4077 6.411 46.2197 6.173 46.6397 5.781C47.0597 5.389 47.2697 4.822 47.2697 4.08C47.2697 3.464 47.0107 2.96 46.4927 2.568C45.9747 2.176 45.4147 1.98 44.8127 1.98C44.1127 1.98 43.4967 2.183 42.9647 2.589C42.4327 2.981 42.1667 3.625 42.1667 4.521L39.9197 4.5C39.9197 3.212 40.3887 2.169 41.3267 1.371C42.2787 0.558999 43.4407 0.153 44.8127 0.153ZM70.4675 15L68.8715 11.409H62.5925L60.9965 15H58.6235L65.5115 0.299999H65.9315L72.8195 15H70.4675ZM63.4115 9.603H68.0525L65.7215 4.416L63.4115 9.603ZM86.6078 5.844C88.2038 5.844 89.4708 6.271 90.4088 7.125C91.3608 7.979 91.8368 9.078 91.8368 10.422C91.8368 11.766 91.3608 12.865 90.4088 13.719C89.4708 14.573 88.2038 15 86.6078 15H81.6518V0.299999H90.4928V2.127H83.8148V5.844H86.6078ZM86.4818 13.068C87.4618 13.068 88.2318 12.837 88.7918 12.375C89.3658 11.899 89.6528 11.248 89.6528 10.422C89.6528 9.596 89.3658 8.952 88.7918 8.49C88.2318 8.014 87.4618 7.776 86.4818 7.776H83.8148V13.068H86.4818ZM111.481 0.299999H113.812L105.748 15H103.438L106.126 10.086L100.771 0.299999H103.102L107.302 7.965L111.481 0.299999ZM138.58 13.152V16.449H136.459V15H124.657V16.449H122.536V13.152H124.237C124.615 12.27 124.853 11.108 124.951 9.666C125.049 8.21 125.098 6.068 125.098 3.24V0.299999H136.48V13.152H138.58ZM126.316 13.152H134.359V2.127H127.219V3.24C127.219 5.144 127.205 6.586 127.177 7.566C127.163 8.532 127.086 9.554 126.946 10.632C126.806 11.696 126.596 12.536 126.316 13.152ZM158.01 0.299999H160.341L152.277 15H149.967L152.655 10.086L147.3 0.299999H149.631L153.831 7.965L158.01 0.299999Z" fill="#3E3E3E"/>
</svg>
